<svg xmlns="http://www.w3.org/2000/svg" fill="none" viewBox="7.22 79.76 427.34 291.42">
<g filter="url(#filter0_d_6_292)">
<path d="M417.112 366.735C419.382 363.621 422.64 361.309 424.2 357.593C425.21 355.187 425.927 352.797 425.927 350.177C425.918 267.271 425.921 184.365 425.918 101.46C425.917 91.2916 417.949 82.7534 407.248 82.7576C285.003 82.8059 162.758 82.8024 40.5134 82.7613C30.8699 82.7581 22.2314 91.117 22.2198 101.107C22.1635 149.958 22.0106 198.811 22.3977 247.659C22.4541 254.765 22.1161 262.051 23.5815 269.155C23.7442 269.943 23.9342 271.024 23.5487 271.578C21.3835 274.687 22.2501 278.162 22.2308 281.48C22.1461 296.041 21.8253 310.616 22.322 325.16C22.6621 335.12 20.3273 344.516 18.337 354.056C17.4105 358.496 16.6751 362.977 15.8531 367.439" stroke="white" stroke-width="6" stroke-linecap="round" stroke-linejoin="round"/>
<path d="M100.051 350.882C175.558 350.882 251.066 350.882 326.573 350.882C347.359 350.882 368.144 350.882 388.929 350.881C392.768 350.881 392.799 350.876 392.799 347.006C392.806 265.979 392.806 184.953 392.799 103.926C392.799 100.056 392.768 100.051 388.929 100.051C278.779 100.05 168.63 100.06 58.4803 100.008C54.7558 100.006 53.9475 100.551 54.2446 104.279C54.6369 109.202 54.904 114.255 54.7254 119.066C53.5612 150.426 54.7025 181.784 54.2544 213.136C54.241 214.075 53.8989 215.23 54.3156 215.916C55.9004 218.527 54.4395 220.514 52.7858 221.873C47.847 225.932 44.3202 231.294 40.0827 235.933C36.0777 240.317 31.9302 244.733 28.1742 249.415C26.945 250.947 25.4011 252.123 23.6035 252.945" stroke="white" stroke-width="7" stroke-linecap="round" stroke-linejoin="round"/>
<path d="M330.801 349.825C330.801 274.552 330.801 199.279 330.801 124.006C330.801 119.074 330.801 119.074 325.869 119.074C235.682 119.074 145.496 119.074 55.3096 119.074" stroke="white" stroke-width="7" stroke-linecap="round" stroke-linejoin="round"/>
<path d="M431.556 368.144C426.747 367.715 421.93 368.726 417.057 367.272C414.676 366.562 411.785 368.181 409.009 368.173C390.103 368.118 371.197 368.144 352.291 368.144C268.446 368.144 184.6 368.144 100.755 368.144C73.981 368.144 47.207 368.144 20.4329 368.144C17.0274 368.144 13.6219 368.144 10.2164 368.144" stroke="white" stroke-width="6" stroke-linecap="round" stroke-linejoin="round"/>
<path d="M292.754 266.332C290.17 265.495 287.587 266.333 285.003 266.333C233.569 266.331 182.134 266.334 130.7 266.317C129.643 266.317 128.586 266.097 127.529 265.979" stroke="white" stroke-width="7" stroke-linecap="round" stroke-linejoin="round"/>
<path d="M288.878 265.275C288.646 262.227 285.938 260.879 284.222 259.003C275.7 249.691 266.806 240.719 258.264 231.423C251.18 223.713 244.014 216.086 236.817 208.483C234.063 205.574 231.484 202.538 228.172 199.508C219.598 208.083 211.259 216.422 202.919 224.761" stroke="white" stroke-width="5" stroke-linecap="round" stroke-linejoin="round"/>
<path d="M131.052 220.886C133.387 222.051 136.237 221.213 138.476 222.967C140.552 224.592 141.922 225.969 140.64 229.021C137.473 236.557 134.547 244.203 131.812 251.908C130.212 256.414 128.557 260.93 127.149 265.51C125.942 269.435 123.76 273.397 122.278 277.441C119.347 285.444 116.711 293.555 113.763 301.551C110.318 310.898 106.066 319.844 99.6982 327.63C98.8969 328.61 98.031 329.439 96.9176 330.155C94.3876 331.781 92.3203 333.903 91.9479 337.142" stroke="white" stroke-width="5" stroke-linecap="round" stroke-linejoin="round"/>
<path d="M23.2512 335.381C42.2749 338.904 61.2856 342.499 80.3315 345.897C84.9798 346.727 89.612 347.916 94.4145 347.726C96.6734 347.637 98.0431 349.39 99.7187 350.421C97.8757 356.031 96.9298 361.715 96.1753 367.439" stroke="white" stroke-width="6" stroke-linecap="round" stroke-linejoin="round"/>
<path d="M72.9242 249.069C74.7867 249.272 75.9733 248.146 77.1557 246.96C83.0184 241.079 89.8148 235.865 94.5466 229.186C101.335 219.603 111.148 213.55 119.069 205.38C120.283 204.127 121.461 202.834 122.589 201.504C124.999 198.664 124.6 194.133 121.916 191.621C120.622 190.41 119.011 190.201 117.688 190.656C107.394 194.194 96.9812 197.402 86.9994 201.826C80.9402 204.511 74.6078 206.544 68.6701 209.561C65.8976 210.969 63.4591 212.789 60.9442 214.542C59.125 215.81 57.7065 217.722 55.3096 218.068" stroke="white" stroke-width="5" stroke-linecap="round" stroke-linejoin="round"/>
<path d="M95.1185 347.359C95.9431 345.446 95.2825 343.354 96.055 341.324C96.7678 339.45 94.1789 337.523 91.2432 337.509C83.8085 337.472 76.6293 335.583 69.4293 334.18C63.324 332.991 57.0777 332.546 51.0832 330.798C46.5787 329.483 41.7944 329.587 37.3192 328.051C36.6955 327.837 36.1471 327.566 35.5814 327.278" stroke="white" stroke-width="6" stroke-linecap="round" stroke-linejoin="round"/>
<path d="M25.3649 272.673C28.0586 275.957 28.1539 280.279 29.873 283.98C32.1757 288.937 33.7002 294.245 36.2937 299.091C38.0115 302.3 38.8846 305.678 38.3873 309.31C37.5804 315.201 36.6939 321.081 35.8573 326.854C33.585 327.397 31.5887 327.524 29.6862 326.963C27.4344 329.203 28.5078 332.604 26.7741 335.028" stroke="white" stroke-width="6" stroke-linecap="round" stroke-linejoin="round"/>
<path d="M154.303 182.487C156.336 180.573 157.986 178.14 161.508 177.518C178.117 197.221 194.922 217.156 211.727 237.092" stroke="white" stroke-width="5" stroke-linecap="round" stroke-linejoin="round"/>
<path d="M96.5277 224.761C93.2503 224.345 90.6046 226.069 88.4956 228.009C83.2337 232.848 78.1853 237.935 73.9432 243.758C72.9658 245.099 72.3137 246.36 72.571 248.013C72.6835 248.736 72.3481 249.217 71.8964 249.797C68.8636 253.688 66.3805 257.96 62.7512 261.445C55.3257 268.575 48.2643 276.084 40.8255 283.2C35.6131 288.185 37.2655 296.631 44.74 298.746C48.3109 299.756 51.1141 298.31 53.537 295.913C59.7943 289.723 66.0507 283.53 72.1949 277.229C74.9794 274.373 78.3884 272.196 80.7177 268.828C83.0618 265.438 86.5994 264.412 90.1277 266.434C93.4592 268.344 96.1102 266.976 98.2131 265.186C104.73 259.637 107.693 252.092 108.802 243.778C108.951 242.664 109.377 241.755 109.948 240.992C115.615 233.418 121.685 226.216 129.651 220.899C131.51 219.659 131.743 217.366 133.434 215.86C138.138 211.669 142.378 206.962 146.925 202.587C150.929 198.735 152.851 193.718 154.978 188.815C155.943 186.589 155.587 184.007 153.848 182.615C152.249 181.335 150.043 181.037 147.567 182.029C140.752 184.759 134.913 188.69 129.965 194.084C128.536 195.641 127.289 197.686 124.711 197.635" stroke="white" stroke-width="5" stroke-linecap="round" stroke-linejoin="round"/>
<path d="M38.3997 204.681C38.3997 213.488 38.4112 222.295 38.3893 231.103C38.3853 232.728 38.333 234.334 39.4566 235.682" stroke="white" stroke-width="6" stroke-linecap="round" stroke-linejoin="round"/>
<path d="M27.1264 350.882C27.914 351.956 27.509 353.654 28.8932 354.394C30.5344 355.272 32.0494 357.064 34.1535 355.783C36.3241 354.461 38.2446 352.785 37.6753 349.828C37.201 347.366 35.4078 345.964 33.1064 345.666C30.7543 345.361 28.7398 346.452 27.9139 348.797C27.6955 349.417 27.065 349.824 27.1264 350.529" stroke="white" stroke-width="5" stroke-linecap="round" stroke-linejoin="round"/>
<path d="M108.506 242.728C107.002 242.657 105.956 243.491 104.981 244.488C99.3477 250.246 93.712 256.001 88.0698 261.749C87.1973 262.638 86.5952 263.627 86.6635 264.923" stroke="white" stroke-width="5" stroke-linecap="round" stroke-linejoin="round"/>
<path d="M124.359 211.727C120.249 215.837 116.136 219.944 112.03 224.059C110.951 225.14 109.585 226.076 109.915 227.932" stroke="white" stroke-width="5" stroke-linecap="round" stroke-linejoin="round"/>
<path d="M92.6524 267.741C90.1215 271.741 83.6118 273.911 78.9131 272.321" stroke="white" stroke-width="6" stroke-linecap="round" stroke-linejoin="round"/>
<path d="M45.0932 280.423C48.9391 284.093 52.1316 288.416 56.3665 291.697" stroke="white" stroke-width="5" stroke-linecap="round" stroke-linejoin="round"/>
<path d="M139.155 187.419C142.678 190.942 146.201 194.464 149.724 197.987" stroke="white" stroke-width="6" stroke-linecap="round" stroke-linejoin="round"/>
<path d="M352.291 307.55C349.481 308.259 348.967 310.168 349.061 312.836C349.256 318.349 349.257 323.877 349.065 329.39C348.962 332.371 350.652 333.484 352.997 333.557C358.98 333.744 364.978 333.762 370.96 333.552C373.504 333.463 375.141 331.742 375.171 329.039C375.232 323.521 375.265 318 375.162 312.482C375.098 309.084 373.351 307.558 369.905 307.552C364.151 307.543 358.397 307.55 352.643 307.55" stroke="white" stroke-width="6" stroke-linecap="round" stroke-linejoin="round"/>
<path d="M352.291 260.343C349.481 261.052 348.967 262.961 349.061 265.629C349.256 271.142 349.101 276.666 349.127 282.185C349.143 285.488 350.044 286.389 353.348 286.405C358.867 286.432 364.386 286.42 369.905 286.41C373.474 286.403 375.161 284.734 375.182 281.128C375.211 276.079 375.214 271.029 375.182 265.98C375.157 262.095 373.413 260.361 369.553 260.348C363.916 260.328 358.28 260.343 352.643 260.343" stroke="white" stroke-width="6" stroke-linecap="round" stroke-linejoin="round"/>
<path d="M352.643 166.281C350.096 166.945 348.963 168.414 349.062 171.215C349.258 176.728 349.101 182.252 349.127 187.771C349.143 191.074 350.044 191.976 353.348 191.991C359.102 192.017 364.856 192.016 370.61 191.992C373.777 191.978 375.064 190.94 375.148 187.77C375.297 182.137 375.306 176.494 375.145 170.862C375.051 167.532 373.634 166.371 369.905 166.307C364.27 166.209 358.632 166.281 352.995 166.281" stroke="white" stroke-width="6" stroke-linecap="round" stroke-linejoin="round"/>
<path d="M407.953 218.068C406.342 219.004 404.425 219.263 403.312 221.204C401.491 224.382 401.465 227.862 403.725 230.398C405.665 232.575 409.423 233.555 411.828 232.512C415.101 231.093 417.179 227.827 416.76 224.761C416.247 221.008 413.829 218.579 410.065 218.079C409.488 218.002 408.892 218.068 408.305 218.068" stroke="white" stroke-width="5" stroke-linecap="round" stroke-linejoin="round"/>
<path d="M122.949 134.927C118.082 135.789 114.021 138.118 110.994 141.991C104.731 150.003 107.538 163.116 116.22 168.105C127.885 174.81 140.535 167.876 143.275 155.337C144.525 149.616 140.801 141.469 136.012 138.406C132.08 135.891 127.965 134.532 123.302 134.927" stroke="white" stroke-width="6" stroke-linecap="round" stroke-linejoin="round"/>
<path d="M352.291 213.136C349.744 214.177 348.983 216.077 349.069 218.774C349.241 224.17 349.103 229.576 349.127 234.978C349.139 237.943 350.324 239.165 353.348 239.191C359.101 239.24 364.856 239.233 370.61 239.192C373.115 239.175 375.13 237.21 375.166 234.625C375.243 229.107 375.256 223.586 375.164 218.068C375.111 214.956 373.162 213.181 369.905 213.151C364.151 213.098 358.397 213.136 352.643 213.136" stroke="white" stroke-width="6" stroke-linecap="round" stroke-linejoin="round"/>
<path d="M352.643 119.074C350.096 119.738 348.96 121.207 349.063 124.008C349.26 129.403 349.241 134.814 349.072 140.21C348.979 143.152 350.098 144.78 352.996 144.948C359.099 145.304 365.209 145.279 371.314 144.958C374.051 144.814 375.146 143.055 375.172 140.564C375.229 135.045 375.257 129.524 375.164 124.007C375.11 120.818 373.215 119.11 369.905 119.086C364.269 119.045 358.632 119.074 352.995 119.074" stroke="white" stroke-width="6" stroke-linecap="round" stroke-linejoin="round"/>
</g>
<defs>
<filter id="filter0_d_6_292" x="-4" y="0" width="454" height="454" filterUnits="userSpaceOnUse" color-interpolation-filters="sRGB">
<feFlood flood-opacity="0" result="BackgroundImageFix"/>
<feColorMatrix in="SourceAlpha" type="matrix" values="0 0 0 0 0 0 0 0 0 0 0 0 0 0 0 0 0 0 127 0" result="hardAlpha"/>
<feOffset dy="4"/>
<feGaussianBlur stdDeviation="2"/>
<feComposite in2="hardAlpha" operator="out"/>
<feColorMatrix type="matrix" values="0 0 0 0 0 0 0 0 0 0 0 0 0 0 0 0 0 0 0.25 0"/>
<feBlend mode="normal" in2="BackgroundImageFix" result="effect1_dropShadow_6_292"/>
<feBlend mode="normal" in="SourceGraphic" in2="effect1_dropShadow_6_292" result="shape"/>
</filter>
</defs>
</svg>