<svg width="319" height="332" viewBox="0 0 319 332" fill="none" xmlns="http://www.w3.org/2000/svg">
<g clip-path="url(#clip0_6_266)">
<path d="M171.938 314.225C188.626 315.372 205.413 315.594 222.088 314.088C238.244 312.629 254.689 309.743 269.733 303.11C273.36 301.51 276.878 299.669 280.312 297.649C283.681 295.669 287.028 293.567 290.079 291.065C295.937 286.261 300.871 280.158 304.201 273.128C307.718 265.703 309.438 257.468 309.824 249.203C310.193 241.289 309.253 233.37 305.309 226.487C297.844 213.459 283.142 207.169 269.924 203.188C254.249 198.468 237.919 196.343 221.73 194.775C208.68 193.513 195.591 192.724 182.504 192.036C176.718 191.731 170.931 191.434 165.144 191.137C160.551 190.903 155.95 190.934 151.353 190.817C143.053 190.606 134.754 190.244 126.466 189.729C109.894 188.7 93.2871 187.172 76.9066 184.261C70.1278 183.056 63.4151 181.694 56.8631 179.453C49.2501 176.848 41.8408 173.485 34.8508 169.359C21.7107 161.605 9.18808 150.575 3.39997 135.455C0.45295 127.758 -0.649846 119.062 0.374445 110.819C1.34889 102.981 4.60557 95.7024 9.5264 89.7834C16.0049 81.9889 24.7861 76.9869 33.7623 73.1732C48.6252 66.8574 64.8711 64.0775 80.7938 63.1487C90.8267 62.5631 100.951 62.6727 110.969 63.5665C124.63 64.7865 138.247 66.4957 151.862 68.187C168.497 70.2539 185.129 72.5315 201.818 74.063C210.114 74.8249 218.361 76.0085 226.642 76.9261C234.919 77.8431 243.218 78.5693 251.533 78.9436C259.776 79.3146 268.055 79.3951 276.289 78.7614C284.256 78.1481 292.363 76.8793 299.867 73.8782C306.3 71.3056 312.386 67.1868 316.07 60.8797C312.537 68.4715 305.751 73.461 298.609 76.773C291.045 80.2797 282.806 82.1223 274.665 83.3495C257.797 85.8931 240.637 85.8403 223.644 85.2441C219.371 85.0943 215.098 84.9147 210.829 84.6658C206.561 84.417 202.313 83.9007 198.068 83.3924C194.849 83.0069 191.628 82.6491 188.408 82.278C174.974 80.7313 161.556 79.0241 148.135 77.3625C135.041 75.7412 121.93 73.9838 108.777 72.9758C96.5793 72.041 84.2492 72.1176 72.086 73.4854C63.787 74.4189 55.4787 75.9524 47.4464 78.3772C41.3467 80.2184 35.2608 82.5071 29.6334 85.6396C21.6702 90.0705 14.2821 96.2384 10.9332 105.356C8.13638 112.971 8.57937 122.007 11.0068 129.663C13.3357 137.008 17.8198 143.405 23.0802 148.705C28.5773 154.244 35.0153 158.704 41.723 162.415C48.9361 166.405 56.5964 169.599 64.4493 171.856C67.4256 172.711 70.4512 173.273 73.4736 173.899C77.671 174.767 81.9084 175.45 86.1433 176.083C94.6148 177.347 103.131 178.275 111.656 179.026C127.835 180.453 144.077 181.23 160.311 181.407C165.831 181.467 171.353 181.865 176.866 182.155C188.351 182.759 199.836 183.373 211.306 184.266C228.326 185.591 245.432 187.386 262.126 191.26C270.028 193.094 277.885 195.407 285.368 198.693C292.662 201.896 299.727 206.06 305.52 211.806C311.16 217.402 315.377 224.432 317.403 232.362C319.605 240.98 319.296 250.318 317.893 259.056C316.567 267.319 313.813 275.389 309.568 282.476C305.365 289.492 299.832 295.477 293.53 300.399C280.431 310.629 263.971 315.005 248.062 317.218C231.067 319.58 213.739 319.348 196.696 317.664C188.407 316.843 180.143 315.72 171.938 314.225Z" fill="#A3A3A3"/>
<path d="M152.65 311.161C109.523 295.764 93.5532 263.973 92.5968 262.003C92.5744 261.963 92.5669 261.931 92.5513 261.915V261.907L118.76 249.637L158.748 230.922C158.748 230.922 171.533 265.585 152.65 311.161Z" fill="#F2C07E"/>
<path d="M134.008 266.462C131.666 267.555 129.324 268.472 127.005 269.222C126.486 269.398 125.966 269.557 125.447 269.709C111.488 273.801 98.7033 271.671 93.6965 264.06C93.689 264.06 93.689 264.052 93.689 264.045C93.2447 263.382 92.8684 262.664 92.5519 261.914V261.906L8.31457 59.8803L34.5237 47.6106L74.5116 28.8872L158.748 230.922C163.371 241.995 152.289 257.91 134.008 266.462Z" fill="#A7989F"/>
<path d="M152.65 311.161C109.523 295.764 93.5532 263.973 92.5968 262.003C92.5818 261.971 92.5669 261.947 92.5513 261.915V261.907L118.76 249.637L123.632 261.317C124.754 264.005 140.46 302.537 152.65 311.161Z" fill="#D6A86F"/>
<path d="M127.005 269.222C126.486 269.398 125.966 269.557 125.447 269.709C111.488 273.801 98.7033 271.671 93.6965 264.06C93.689 264.06 93.689 264.052 93.689 264.045C93.0715 262.96 92.7176 262.25 92.5974 262.002C92.5824 261.97 92.5675 261.946 92.5519 261.914V261.906L8.31457 59.8802L34.5237 47.6105L118.76 249.637L123.632 261.317C123.918 262.003 125.138 264.994 127.005 269.222Z" fill="black"/>
<path d="M74.5061 28.8876C69.8895 17.8153 51.3284 15.7759 33.0488 24.3325C14.7691 32.8892 3.6931 48.8016 8.30972 59.874C12.9263 70.9464 31.4874 72.9858 49.7671 64.4291C68.0467 55.8725 79.1228 39.96 74.5061 28.8876Z" fill="#D6A86F"/>
<path d="M29.7998 55.7972C27.5792 55.7972 25.5456 54.4109 24.6372 52.2317C23.6677 49.9073 24.1905 47.1868 25.9406 45.4486C29.2602 42.1511 33.543 39.2259 38.3262 36.9867C43.1093 34.7481 48.0351 33.3631 52.5697 32.9828C54.956 32.7801 57.2108 34.2041 58.1802 36.5298C59.1497 38.8542 58.627 41.5748 56.8768 43.3129C53.5572 46.6104 49.2744 49.5363 44.4912 51.7748C39.7081 54.0141 34.7823 55.3984 30.2477 55.7787C30.0982 55.7906 29.9493 55.7972 29.7998 55.7972Z" fill="#A3A3A3"/>
<path d="M160.134 287.268C158.53 294.767 156.128 302.777 152.65 311.161V311.169C152.642 311.169 152.627 311.161 152.62 311.161C144.819 308.369 137.9 305.042 131.809 301.452C131.809 301.452 134 296.626 138.442 292.374C143.133 287.906 150.338 284.077 160.134 287.268Z" fill="#A3A3A3"/>
</g>
<defs>
<clipPath id="clip0_6_266">
<rect width="319" height="338" fill="white"/>
</clipPath>
</defs>
</svg>
